<?xml version="1.0" standalone="no"?>
<!DOCTYPE svg PUBLIC "-//W3C//DTD SVG 20010904//EN"
 "http://www.w3.org/TR/2001/REC-SVG-20010904/DTD/svg10.dtd">
<svg version="1.0" xmlns="http://www.w3.org/2000/svg"
 width="700.000000pt" height="700.000000pt" viewBox="0 0 700.000000 700.000000"
 preserveAspectRatio="xMidYMid meet">
<metadata>
Created by potrace 1.11, written by Peter Selinger 2001-2013
</metadata>
<g transform="translate(0.000000,700.000000) scale(0.100000,-0.100000)"
fill="#000000" stroke="none">
<path d="M0 3500 l0 -3500 3500 0 3500 0 0 3500 0 3500 -3500 0 -3500 0 0
-3500z m4700 2984 c0 -12 -1673 -2914 -1679 -2914 -14 0 -222 373 -217 387 3
8 283 495 621 1083 338 589 615 1072 615 1075 0 3 -561 6 -1247 7 l-1248 3
-102 175 c-56 96 -102 178 -102 183 -1 4 755 7 1679 7 924 0 1680 -3 1680 -6z
m680 2 c0 -2 -498 -874 -1106 -1937 -609 -1064 -1361 -2379 -1672 -2924 -311
-545 -566 -991 -567 -993 -1 -1 -104 -1 -228 0 l-226 3 181 315 c783 1367
3082 5374 3125 5448 l54 92 220 0 c120 0 219 -2 219 -4z m-1326 -3126 c60
-104 106 -195 103 -202 -3 -7 -282 -494 -621 -1083 l-616 -1070 1247 -5 1247
-5 103 -180 103 -180 -1677 -3 c-922 -1 -1678 -1 -1680 1 -4 5 1670 2917 1677
2917 3 0 54 -85 114 -190z"/>
</g>
</svg>
